<?xml version="1.0" encoding="utf-8"?>
<!-- Generator: Adobe Illustrator 23.0.3, SVG Export Plug-In . SVG Version: 6.00 Build 0)  -->
<svg version="1.1" id="レイヤー_1" xmlns="http://www.w3.org/2000/svg" xmlns:xlink="http://www.w3.org/1999/xlink" x="0px"
	 y="0px" viewBox="0 0 20 20" style="enable-background:new 0 0 20 20;" xml:space="preserve">
<style type="text/css">
	.st0{fill:#C9C9C9;}
</style>
<path class="st0" d="M13.6,2.3c-3.1-3.1-8.2-3.1-11.3,0s-3.1,8.2,0,11.3c2.9,2.9,7.4,3.1,10.5,0.7l5.6,5.6c0.2,0.2,0.8,0.1,1.2-0.3
	c0.4-0.4,0.5-0.9,0.3-1.2l-5.6-5.6C16.7,9.7,16.5,5.2,13.6,2.3z M12.9,12.9c-2.7,2.7-7.2,2.7-9.9,0S0.3,5.8,3,3s7.2-2.7,9.9,0
	S15.6,10.2,12.9,12.9z"/>
</svg>
